# xmcd
# Track frame offsets:
# 150
# 14705
# 30105
# 44441
# 57331
# 69563
# 83736
# 96977
# 111054
# 126624
# 139469
# 152802
# 167383
# 182509
# 196036
# 210899
# 224545
# 237653
# 251284
# 265357
# 280050
# 293716
# 307411
#
# Disc length: 4261 seconds
# Revision: 0
# Processed by: cddbd v1.4PL0 Copyright (c) Steve Scherf et al.
# Submitted via: VisiTrax 2.9.2.167 - For more info visit www.synapsa.com
#
DISCID=5610a317
DTITLE=Various Artist - Mama Don't Allow No Easy Riders Here: Strutting Doze
DTITLE=ns - Rags Blues Stomps 1923-1936
DYEAR=1900
DGENRE=
TTITLE0=Turner Parrish - Trenches
TTITLE1=Cow Cow Davenport - Mama Don't Allow No Easy Riders Here
TTITLE2=Cow Cow Davenport - Atlanta Rag
TTITLE3=Herve Duerson - Avenue Strut
TTITLE4=Will Ezell - Mixed Up Rag
TTITLE5=Blind Leroy Garnett - Louisiana Glide
TTITLE6=Arnold Wiley - Windy City
TTITLE7=Cow Cow Davenport - Slum Gullion Stomp
TTITLE8=Will Ezell - Old Mill Blues
TTITLE9=Speckled Red - Wilkins Street Blues
TTITLE10=Herve Duerson - Easy Drag
TTITLE11=Cow Cow Davenport - Texas Shout
TTITLE12=Turner Parrish - The Fives
TTITLE13=Arnold Wiley - Arnold Wiley Rag
TTITLE14=Will Ezell - Playing The Dozen
TTITLE15=Blind Leroy Garnett - Chain 'Em Down
TTITLE16=Cow Cow Davenport - Alabama Strut
TTITLE17=Will Ezell - Heifer Dust
TTITLE18=Raymond Barrow - Walking Blues
TTITLE19=Speckled Red - The Dirty Dozen
TTITLE20=Speckled Red - The Dirty Dozen No. 2
TTITLE21=Cow Cow Davenport - Chimin' The Blues
TTITLE22=Various Artist - Oh You Devil You
EXTD=c 1998 Yazoo Records\n\nCharles "Cow Cow" Davenport  -  Performer \nSp
EXTD=eckled Red  -  Performer \nBob Hall  -  Liner Notes \nWilliam Ezel
EXTD=l  -  Performer \nRichard Nevins  -  Remastering \nJoan Pelosi  -  Des
EXTD=ign \nFrancis Wilford-Smith  -  Producer \nBlind Leroy Garnett  -  Per
EXTD=former \nArnold "Doc" Wiley  -  Performer
EXTT0=
EXTT1=
EXTT2=
EXTT3=
EXTT4=
EXTT5=
EXTT6=
EXTT7=
EXTT8=
EXTT9=
EXTT10=
EXTT11=
EXTT12=
EXTT13=
EXTT14=
EXTT15=
EXTT16=
EXTT17=
EXTT18=
EXTT19=
EXTT20=
EXTT21=
EXTT22=
PLAYORDER=
